<?xml version="1.0" encoding="UTF-8" standalone="no"?>
<svg width="20px" height="18px" viewBox="0 0 20 18" version="1.1" xmlns="http://www.w3.org/2000/svg" xmlns:xlink="http://www.w3.org/1999/xlink" xmlns:sketch="http://www.bohemiancoding.com/sketch/ns">
    <!-- Generator: Sketch 3.4.2 (15855) - http://www.bohemiancoding.com/sketch -->
    <title>language</title>
    <desc>Created with Sketch.</desc>
    <defs></defs>
    <g id="Page-1" stroke="none" stroke-width="1" fill="none" fill-rule="evenodd" sketch:type="MSPage">
        <g id="mobile-on-desktop-copy" sketch:type="MSArtboardGroup" transform="translate(-418.000000, -1264.000000)" fill="#347BFF">
            <g id="Group" sketch:type="MSLayerGroup" transform="translate(-113.000000, 1231.000000)">
                <g id="language" transform="translate(531.000000, 33.000000)" sketch:type="MSShapeGroup">
                    <path d="M13.7753846,5.43299739 L15.5972308,5.43299739 L19.9230769,17.288869 L18.1550769,17.288869 L16.9110769,13.7379843 L12.2344615,13.7379843 L10.9421538,17.288869 L9.28738462,17.288869 L13.7753846,5.43299739 Z M16.452,12.4297798 L14.6166154,7.19175812 L12.7104615,12.4297798 L16.452,12.4297798 Z" id="Fill-1"></path>
                    <path d="M12.0769231,13.6972751 C9.76923077,12.779022 8.38461538,11.6312057 7,10.4833893 C7,10.4833893 7.28861538,10.7704965 7,10.4833893 C5.61538462,11.6312057 2.38461538,13.4677118 2.38461538,13.4677118 L1.46153846,12.0903322 C3.30769231,10.9425159 3.76923077,10.7129526 5.84615385,9.10600971 C5.37015385,8.6658604 3.07692308,6.1216872 2.84615385,4.74430758 L4.69230769,4.74430758 C5.61538462,6.81037701 7,7.95819336 7,7.95819336 C9.30769231,6.1216872 9.30769231,3.59649123 9.30769231,3.59649123 L11.1538462,3.59649123 C11.1538462,3.59649123 10.9230769,6.58081374 8.38461538,9.10600971 C9.53846154,10.2538261 10.6923077,11.1720791 12.7692308,12.0903322 L12.0769231,13.6972751 Z M0.0769230769,3.59649123 L13,3.59649123 L13,1.75998507 L7.69230769,1.75998507 L7.69230769,0.15304218 L5.61538462,0.15304218 L5.61538462,1.75998507 L0.0769230769,1.75998507 L0.0769230769,3.59649123 Z" id="Fill-2"></path>
                </g>
            </g>
        </g>
    </g>
</svg>